<mxfile host="app.diagrams.net" agent="Mozilla/5.0 (Windows NT 10.0; Win64; x64) AppleWebKit/537.36 (KHTML, like Gecko) Chrome/134.0.0.0 Safari/537.36" version="26.1.1">
  <diagram name="Página-1" id="jd6p-t7Q6WH0l8BRLF6l">
    <mxGraphModel dx="875" dy="435" grid="1" gridSize="10" guides="1" tooltips="1" connect="1" arrows="1" fold="1" page="1" pageScale="1" pageWidth="827" pageHeight="1169" math="0" shadow="0">
      <root>
        <mxCell id="0" />
        <mxCell id="1" parent="0" />
        <mxCell id="FeEFCU1vYZjdTVe1Qur_-5" value="Ponto de coleta do mercado livre" style="rounded=0;whiteSpace=wrap;html=1;verticalAlign=top;fontSize=14;fontStyle=1" vertex="1" parent="1">
          <mxGeometry x="110" y="10" width="600" height="580" as="geometry" />
        </mxCell>
        <mxCell id="JjyXnd0NtbJhpBLhwNoX-1" value="Funcionário" style="shape=umlActor;verticalLabelPosition=bottom;verticalAlign=top;html=1;outlineConnect=0;" parent="1" vertex="1">
          <mxGeometry x="730" y="424" width="60" height="120" as="geometry" />
        </mxCell>
        <mxCell id="JjyXnd0NtbJhpBLhwNoX-2" value="Entregador" style="shape=umlActor;verticalLabelPosition=bottom;verticalAlign=top;html=1;outlineConnect=0;" parent="1" vertex="1">
          <mxGeometry x="730" y="120" width="60" height="120" as="geometry" />
        </mxCell>
        <mxCell id="JjyXnd0NtbJhpBLhwNoX-3" value="Cliente" style="shape=umlActor;verticalLabelPosition=bottom;verticalAlign=top;html=1;outlineConnect=0;" parent="1" vertex="1">
          <mxGeometry x="10" y="151" width="60" height="120" as="geometry" />
        </mxCell>
        <mxCell id="JjyXnd0NtbJhpBLhwNoX-4" value="Registrar conta" style="ellipse;whiteSpace=wrap;html=1;" parent="1" vertex="1">
          <mxGeometry x="140" y="70" width="200" height="50" as="geometry" />
        </mxCell>
        <mxCell id="JjyXnd0NtbJhpBLhwNoX-6" value="Retirar Produto" style="ellipse;whiteSpace=wrap;html=1;" parent="1" vertex="1">
          <mxGeometry x="140" y="130" width="200" height="50" as="geometry" />
        </mxCell>
        <mxCell id="JjyXnd0NtbJhpBLhwNoX-7" value="Solicitar devolução" style="ellipse;whiteSpace=wrap;html=1;" parent="1" vertex="1">
          <mxGeometry x="140" y="190" width="200" height="50" as="geometry" />
        </mxCell>
        <mxCell id="JjyXnd0NtbJhpBLhwNoX-8" value="Registrar chegada de produtos" style="ellipse;whiteSpace=wrap;html=1;" parent="1" vertex="1">
          <mxGeometry x="470" y="467" width="200" height="50" as="geometry" />
        </mxCell>
        <mxCell id="JjyXnd0NtbJhpBLhwNoX-9" value="Confirmar retirada (validar cliente)" style="ellipse;whiteSpace=wrap;html=1;" parent="1" vertex="1">
          <mxGeometry x="470" y="348" width="200" height="50" as="geometry" />
        </mxCell>
        <mxCell id="JjyXnd0NtbJhpBLhwNoX-10" value="Processar devolução" style="ellipse;whiteSpace=wrap;html=1;" parent="1" vertex="1">
          <mxGeometry x="470" y="408" width="200" height="50" as="geometry" />
        </mxCell>
        <mxCell id="JjyXnd0NtbJhpBLhwNoX-11" value="Transportar produtos para a agência" style="ellipse;whiteSpace=wrap;html=1;spacingTop=0;" parent="1" vertex="1">
          <mxGeometry x="483" y="100" width="200" height="50" as="geometry" />
        </mxCell>
        <mxCell id="JjyXnd0NtbJhpBLhwNoX-12" value="Recolher devoluções para o centro logístico" style="ellipse;whiteSpace=wrap;html=1;spacingTop=10;" parent="1" vertex="1">
          <mxGeometry x="483" y="160" width="200" height="50" as="geometry" />
        </mxCell>
        <mxCell id="JjyXnd0NtbJhpBLhwNoX-21" value="Notificar status de entrega ou devolução" style="ellipse;whiteSpace=wrap;html=1;" parent="1" vertex="1">
          <mxGeometry x="140" y="438.5" width="200" height="50" as="geometry" />
        </mxCell>
        <mxCell id="JjyXnd0NtbJhpBLhwNoX-28" value="Gerar relatório de estoque" style="ellipse;whiteSpace=wrap;html=1;" parent="1" vertex="1">
          <mxGeometry x="470" y="526.5" width="200" height="50" as="geometry" />
        </mxCell>
        <mxCell id="JjyXnd0NtbJhpBLhwNoX-29" value="Rastrear compra ou devolução" style="ellipse;whiteSpace=wrap;html=1;" parent="1" vertex="1">
          <mxGeometry x="140" y="248" width="200" height="50" as="geometry" />
        </mxCell>
        <mxCell id="JjyXnd0NtbJhpBLhwNoX-30" value="Notificar cliente sobre disponibilidade" style="ellipse;whiteSpace=wrap;html=1;" parent="1" vertex="1">
          <mxGeometry x="140" y="379.5" width="200" height="50" as="geometry" />
        </mxCell>
        <mxCell id="FeEFCU1vYZjdTVe1Qur_-7" value="" style="endArrow=none;html=1;rounded=0;exitX=0;exitY=0.3333333333333333;exitDx=0;exitDy=0;exitPerimeter=0;entryX=1;entryY=0.5;entryDx=0;entryDy=0;strokeWidth=2;" edge="1" parent="1" source="JjyXnd0NtbJhpBLhwNoX-1" target="JjyXnd0NtbJhpBLhwNoX-8">
          <mxGeometry width="50" height="50" relative="1" as="geometry">
            <mxPoint x="853" y="614" as="sourcePoint" />
            <mxPoint x="903" y="564" as="targetPoint" />
          </mxGeometry>
        </mxCell>
        <mxCell id="FeEFCU1vYZjdTVe1Qur_-8" value="" style="endArrow=none;html=1;rounded=0;exitX=0;exitY=0.3333333333333333;exitDx=0;exitDy=0;exitPerimeter=0;entryX=1;entryY=0.5;entryDx=0;entryDy=0;strokeWidth=2;" edge="1" parent="1" source="JjyXnd0NtbJhpBLhwNoX-1" target="JjyXnd0NtbJhpBLhwNoX-9">
          <mxGeometry width="50" height="50" relative="1" as="geometry">
            <mxPoint x="423" y="429" as="sourcePoint" />
            <mxPoint x="548" y="410" as="targetPoint" />
          </mxGeometry>
        </mxCell>
        <mxCell id="FeEFCU1vYZjdTVe1Qur_-9" value="" style="endArrow=none;html=1;rounded=0;exitX=0;exitY=0.3333333333333333;exitDx=0;exitDy=0;exitPerimeter=0;entryX=1;entryY=0.5;entryDx=0;entryDy=0;strokeWidth=2;" edge="1" parent="1" source="JjyXnd0NtbJhpBLhwNoX-1" target="JjyXnd0NtbJhpBLhwNoX-10">
          <mxGeometry width="50" height="50" relative="1" as="geometry">
            <mxPoint x="433" y="439" as="sourcePoint" />
            <mxPoint x="558" y="420" as="targetPoint" />
          </mxGeometry>
        </mxCell>
        <mxCell id="FeEFCU1vYZjdTVe1Qur_-14" value="" style="endArrow=none;html=1;rounded=0;exitX=1;exitY=0.3333333333333333;exitDx=0;exitDy=0;exitPerimeter=0;entryX=0;entryY=0.5;entryDx=0;entryDy=0;strokeWidth=2;" edge="1" parent="1" source="JjyXnd0NtbJhpBLhwNoX-3" target="JjyXnd0NtbJhpBLhwNoX-4">
          <mxGeometry width="50" height="50" relative="1" as="geometry">
            <mxPoint x="80" y="471" as="sourcePoint" />
            <mxPoint x="150" y="386" as="targetPoint" />
          </mxGeometry>
        </mxCell>
        <mxCell id="FeEFCU1vYZjdTVe1Qur_-15" value="" style="endArrow=none;html=1;rounded=0;exitX=1;exitY=0.3333333333333333;exitDx=0;exitDy=0;exitPerimeter=0;entryX=0;entryY=0.5;entryDx=0;entryDy=0;strokeWidth=2;" edge="1" parent="1" source="JjyXnd0NtbJhpBLhwNoX-3" target="JjyXnd0NtbJhpBLhwNoX-6">
          <mxGeometry width="50" height="50" relative="1" as="geometry">
            <mxPoint x="80" y="170" as="sourcePoint" />
            <mxPoint x="150" y="105" as="targetPoint" />
          </mxGeometry>
        </mxCell>
        <mxCell id="FeEFCU1vYZjdTVe1Qur_-16" value="" style="endArrow=none;html=1;rounded=0;exitX=1;exitY=0.3333333333333333;exitDx=0;exitDy=0;exitPerimeter=0;entryX=0;entryY=0.5;entryDx=0;entryDy=0;strokeWidth=2;" edge="1" parent="1" source="JjyXnd0NtbJhpBLhwNoX-3" target="JjyXnd0NtbJhpBLhwNoX-7">
          <mxGeometry width="50" height="50" relative="1" as="geometry">
            <mxPoint x="90" y="180" as="sourcePoint" />
            <mxPoint x="160" y="115" as="targetPoint" />
          </mxGeometry>
        </mxCell>
        <mxCell id="FeEFCU1vYZjdTVe1Qur_-17" value="" style="endArrow=none;html=1;rounded=0;exitX=1;exitY=0.3333333333333333;exitDx=0;exitDy=0;exitPerimeter=0;entryX=0;entryY=0.5;entryDx=0;entryDy=0;strokeWidth=2;" edge="1" parent="1" source="JjyXnd0NtbJhpBLhwNoX-3" target="JjyXnd0NtbJhpBLhwNoX-29">
          <mxGeometry width="50" height="50" relative="1" as="geometry">
            <mxPoint x="100" y="190" as="sourcePoint" />
            <mxPoint x="170" y="125" as="targetPoint" />
          </mxGeometry>
        </mxCell>
        <mxCell id="FeEFCU1vYZjdTVe1Qur_-22" value="" style="endArrow=none;html=1;rounded=0;exitX=1;exitY=0.5;exitDx=0;exitDy=0;entryX=0;entryY=0.3333333333333333;entryDx=0;entryDy=0;strokeWidth=2;entryPerimeter=0;" edge="1" parent="1" source="JjyXnd0NtbJhpBLhwNoX-12" target="JjyXnd0NtbJhpBLhwNoX-2">
          <mxGeometry width="50" height="50" relative="1" as="geometry">
            <mxPoint x="770" y="506" as="sourcePoint" />
            <mxPoint x="723" y="416" as="targetPoint" />
          </mxGeometry>
        </mxCell>
        <mxCell id="FeEFCU1vYZjdTVe1Qur_-23" value="" style="endArrow=none;html=1;rounded=0;exitX=1;exitY=0.5;exitDx=0;exitDy=0;strokeWidth=2;entryX=0;entryY=0.3333333333333333;entryDx=0;entryDy=0;entryPerimeter=0;" edge="1" parent="1" source="JjyXnd0NtbJhpBLhwNoX-11" target="JjyXnd0NtbJhpBLhwNoX-2">
          <mxGeometry width="50" height="50" relative="1" as="geometry">
            <mxPoint x="720" y="356" as="sourcePoint" />
            <mxPoint x="700" y="190" as="targetPoint" />
          </mxGeometry>
        </mxCell>
        <mxCell id="FeEFCU1vYZjdTVe1Qur_-30" value="" style="endArrow=none;html=1;rounded=0;exitX=0;exitY=0.3333333333333333;exitDx=0;exitDy=0;exitPerimeter=0;entryX=1;entryY=0.5;entryDx=0;entryDy=0;strokeWidth=2;" edge="1" parent="1" source="JjyXnd0NtbJhpBLhwNoX-1" target="JjyXnd0NtbJhpBLhwNoX-28">
          <mxGeometry width="50" height="50" relative="1" as="geometry">
            <mxPoint x="740" y="487" as="sourcePoint" />
            <mxPoint x="680" y="474" as="targetPoint" />
          </mxGeometry>
        </mxCell>
        <mxCell id="FeEFCU1vYZjdTVe1Qur_-32" value="&amp;lt;&amp;lt;include&amp;gt;&amp;gt;" style="html=1;verticalAlign=bottom;labelBackgroundColor=none;endArrow=open;endFill=0;dashed=1;rounded=0;exitX=0;exitY=0.5;exitDx=0;exitDy=0;entryX=1;entryY=0.5;entryDx=0;entryDy=0;" edge="1" parent="1" source="JjyXnd0NtbJhpBLhwNoX-9" target="JjyXnd0NtbJhpBLhwNoX-6">
          <mxGeometry width="160" relative="1" as="geometry">
            <mxPoint x="380" y="320" as="sourcePoint" />
            <mxPoint x="540" y="320" as="targetPoint" />
          </mxGeometry>
        </mxCell>
        <mxCell id="FeEFCU1vYZjdTVe1Qur_-33" value="&amp;lt;&amp;lt;include&amp;gt;&amp;gt;" style="html=1;verticalAlign=bottom;labelBackgroundColor=none;endArrow=open;endFill=0;dashed=1;rounded=0;exitX=1;exitY=0.5;exitDx=0;exitDy=0;entryX=0;entryY=0.5;entryDx=0;entryDy=0;" edge="1" parent="1" source="JjyXnd0NtbJhpBLhwNoX-7" target="JjyXnd0NtbJhpBLhwNoX-10">
          <mxGeometry width="160" relative="1" as="geometry">
            <mxPoint x="480" y="383" as="sourcePoint" />
            <mxPoint x="350" y="165" as="targetPoint" />
          </mxGeometry>
        </mxCell>
      </root>
    </mxGraphModel>
  </diagram>
</mxfile>
